<mxfile host="app.diagrams.net" modified="2021-04-04T18:46:23.012Z" agent="5.0 (Windows NT 10.0; Win64; x64) AppleWebKit/537.36 (KHTML, like Gecko) Chrome/88.0.4324.192 Safari/537.36 OPR/74.0.3911.218" etag="_fkBjBA353avH1XIFses" version="14.5.7" type="github">
  <diagram id="wZJr-rIxSzPZs1Y1Dw0P" name="Page-1">
    <mxGraphModel dx="1062" dy="584" grid="1" gridSize="10" guides="1" tooltips="1" connect="1" arrows="1" fold="1" page="1" pageScale="1" pageWidth="850" pageHeight="1100" math="0" shadow="0">
      <root>
        <mxCell id="0" />
        <mxCell id="1" parent="0" />
        <mxCell id="G8AZ5grSRXp7mo_oatXY-1" value="Restaurant POS 2.0" style="shape=umlFrame;whiteSpace=wrap;html=1;width=150;height=30;fillColor=#dae8fc;swimlaneFillColor=#ffffff;strokeColor=#D4E1F5;" parent="1" vertex="1">
          <mxGeometry x="240" y="110" width="495" height="600" as="geometry" />
        </mxCell>
        <mxCell id="G8AZ5grSRXp7mo_oatXY-2" style="rounded=1;orthogonalLoop=1;jettySize=auto;html=1;entryX=0;entryY=0.5;entryDx=0;entryDy=0;strokeWidth=2;" parent="1" target="G8AZ5grSRXp7mo_oatXY-27" edge="1">
          <mxGeometry relative="1" as="geometry">
            <Array as="points">
              <mxPoint x="230" y="165" />
            </Array>
            <mxPoint x="150" y="390" as="sourcePoint" />
          </mxGeometry>
        </mxCell>
        <mxCell id="G8AZ5grSRXp7mo_oatXY-3" value="Check" style="edgeLabel;html=1;align=center;verticalAlign=middle;resizable=0;points=[];fontSize=14;" parent="G8AZ5grSRXp7mo_oatXY-2" connectable="0" vertex="1">
          <mxGeometry x="0.4077" relative="1" as="geometry">
            <mxPoint x="15.000000000000002" as="offset" />
          </mxGeometry>
        </mxCell>
        <mxCell id="G8AZ5grSRXp7mo_oatXY-4" style="rounded=1;orthogonalLoop=1;jettySize=auto;html=1;entryX=0;entryY=0.5;entryDx=0;entryDy=0;strokeWidth=2;" parent="1" target="G8AZ5grSRXp7mo_oatXY-18" edge="1">
          <mxGeometry relative="1" as="geometry">
            <mxPoint x="150" y="390" as="sourcePoint" />
            <mxPoint x="220" y="275" as="targetPoint" />
            <Array as="points">
              <mxPoint x="240" y="245" />
            </Array>
          </mxGeometry>
        </mxCell>
        <mxCell id="G8AZ5grSRXp7mo_oatXY-5" value="View" style="edgeLabel;html=1;align=center;verticalAlign=middle;resizable=0;points=[];fontSize=14;" parent="G8AZ5grSRXp7mo_oatXY-4" vertex="1" connectable="0">
          <mxGeometry x="0.1281" y="-1" relative="1" as="geometry">
            <mxPoint x="47" y="-1" as="offset" />
          </mxGeometry>
        </mxCell>
        <mxCell id="G8AZ5grSRXp7mo_oatXY-6" style="rounded=1;orthogonalLoop=1;jettySize=auto;html=1;entryX=0;entryY=0.5;entryDx=0;entryDy=0;strokeWidth=2;" parent="1" target="G8AZ5grSRXp7mo_oatXY-32" edge="1">
          <mxGeometry relative="1" as="geometry">
            <Array as="points">
              <mxPoint x="230" y="325" />
            </Array>
            <mxPoint x="240" y="335" as="targetPoint" />
            <mxPoint x="150" y="390" as="sourcePoint" />
          </mxGeometry>
        </mxCell>
        <mxCell id="G8AZ5grSRXp7mo_oatXY-7" value="Place" style="edgeLabel;html=1;align=center;verticalAlign=middle;resizable=0;points=[];fontSize=14;" parent="G8AZ5grSRXp7mo_oatXY-6" vertex="1" connectable="0">
          <mxGeometry x="0.1298" y="1" relative="1" as="geometry">
            <mxPoint x="6" y="1" as="offset" />
          </mxGeometry>
        </mxCell>
        <mxCell id="G8AZ5grSRXp7mo_oatXY-8" style="rounded=1;orthogonalLoop=1;jettySize=auto;html=1;entryX=0;entryY=0.5;entryDx=0;entryDy=0;fontSize=11;strokeWidth=2;" parent="1" target="G8AZ5grSRXp7mo_oatXY-24" edge="1">
          <mxGeometry relative="1" as="geometry">
            <Array as="points">
              <mxPoint x="230" y="475" />
            </Array>
            <mxPoint x="150" y="390" as="sourcePoint" />
          </mxGeometry>
        </mxCell>
        <mxCell id="G8AZ5grSRXp7mo_oatXY-9" value="Pay" style="edgeLabel;html=1;align=center;verticalAlign=middle;resizable=0;points=[];fontSize=14;" parent="G8AZ5grSRXp7mo_oatXY-8" vertex="1" connectable="0">
          <mxGeometry x="0.2805" y="-1" relative="1" as="geometry">
            <mxPoint x="-15.52" y="-1" as="offset" />
          </mxGeometry>
        </mxCell>
        <mxCell id="G8AZ5grSRXp7mo_oatXY-10" style="rounded=1;orthogonalLoop=1;jettySize=auto;html=1;entryX=0;entryY=0.5;entryDx=0;entryDy=0;endArrow=classic;endFill=1;endSize=6;fontSize=11;strokeWidth=2;" parent="1" target="G8AZ5grSRXp7mo_oatXY-41" edge="1">
          <mxGeometry relative="1" as="geometry">
            <Array as="points">
              <mxPoint x="230" y="668" />
            </Array>
            <mxPoint x="150" y="390" as="sourcePoint" />
          </mxGeometry>
        </mxCell>
        <mxCell id="G8AZ5grSRXp7mo_oatXY-11" value="Review &amp;amp; Comment" style="edgeLabel;html=1;align=center;verticalAlign=middle;resizable=0;points=[];fontSize=14;" parent="G8AZ5grSRXp7mo_oatXY-10" connectable="0" vertex="1">
          <mxGeometry x="0.3952" y="2" relative="1" as="geometry">
            <mxPoint x="44.11" y="1.63" as="offset" />
          </mxGeometry>
        </mxCell>
        <mxCell id="G8AZ5grSRXp7mo_oatXY-12" value="Customer" style="shape=umlActor;verticalLabelPosition=bottom;verticalAlign=top;html=1;outlineConnect=0;fontSize=14;" parent="1" vertex="1">
          <mxGeometry x="110" y="360" width="30" height="60" as="geometry" />
        </mxCell>
        <mxCell id="G8AZ5grSRXp7mo_oatXY-13" style="edgeStyle=none;rounded=1;orthogonalLoop=1;jettySize=auto;html=1;entryX=1;entryY=0.5;entryDx=0;entryDy=0;endArrow=classic;endFill=1;fontSize=15;fillColor=#fa6800;strokeColor=#C73500;strokeWidth=2;" parent="1" target="G8AZ5grSRXp7mo_oatXY-33" edge="1">
          <mxGeometry relative="1" as="geometry">
            <Array as="points">
              <mxPoint x="670" y="400" />
            </Array>
            <mxPoint x="780" y="190" as="sourcePoint" />
          </mxGeometry>
        </mxCell>
        <mxCell id="G8AZ5grSRXp7mo_oatXY-14" style="rounded=1;orthogonalLoop=1;jettySize=auto;html=1;endArrow=classic;endFill=1;fontSize=15;entryX=1;entryY=0.5;entryDx=0;entryDy=0;fillColor=#fa6800;strokeColor=#C73500;strokeWidth=2;" parent="1" target="G8AZ5grSRXp7mo_oatXY-18" edge="1">
          <mxGeometry relative="1" as="geometry">
            <mxPoint x="780" y="190" as="sourcePoint" />
            <Array as="points">
              <mxPoint x="660" y="245" />
            </Array>
          </mxGeometry>
        </mxCell>
        <mxCell id="G8AZ5grSRXp7mo_oatXY-15" value="Modify" style="edgeLabel;html=1;align=center;verticalAlign=middle;resizable=0;points=[];fontSize=14;rotation=0;" parent="G8AZ5grSRXp7mo_oatXY-14" connectable="0" vertex="1">
          <mxGeometry x="0.2123" y="-2" relative="1" as="geometry">
            <mxPoint x="-43.580000000000005" y="2" as="offset" />
          </mxGeometry>
        </mxCell>
        <mxCell id="G8AZ5grSRXp7mo_oatXY-16" value="Web&lt;br&gt;Administrator" style="shape=umlActor;verticalLabelPosition=bottom;verticalAlign=top;html=1;outlineConnect=0;align=center;fillColor=#fa6800;strokeColor=#C73500;fontColor=#ffffff;" parent="1" vertex="1">
          <mxGeometry x="780" y="160" width="30" height="60" as="geometry" />
        </mxCell>
        <mxCell id="G8AZ5grSRXp7mo_oatXY-17" style="edgeStyle=none;rounded=0;orthogonalLoop=1;jettySize=auto;html=1;exitX=0.5;exitY=1;exitDx=0;exitDy=0;entryX=0.5;entryY=0;entryDx=0;entryDy=0;endArrow=block;endFill=0;endSize=12;fontSize=11;dashed=1;" parent="1" source="G8AZ5grSRXp7mo_oatXY-18" target="G8AZ5grSRXp7mo_oatXY-32" edge="1">
          <mxGeometry relative="1" as="geometry" />
        </mxCell>
        <mxCell id="G8AZ5grSRXp7mo_oatXY-18" value="Menu" style="ellipse;whiteSpace=wrap;html=1;fillColor=#dae8fc;strokeColor=#6c8ebf;strokeWidth=2;fontSize=14;" parent="1" vertex="1">
          <mxGeometry x="410" y="230" width="122.5" height="30" as="geometry" />
        </mxCell>
        <mxCell id="G8AZ5grSRXp7mo_oatXY-19" style="edgeStyle=entityRelationEdgeStyle;rounded=0;orthogonalLoop=1;jettySize=auto;html=1;exitX=0;exitY=0.3333333333333333;exitDx=0;exitDy=0;exitPerimeter=0;entryX=1;entryY=0.5;entryDx=0;entryDy=0;fontSize=15;fillColor=#e3c800;strokeColor=#B09500;strokeWidth=2;" parent="1" source="G8AZ5grSRXp7mo_oatXY-21" target="G8AZ5grSRXp7mo_oatXY-39" edge="1">
          <mxGeometry relative="1" as="geometry" />
        </mxCell>
        <mxCell id="G8AZ5grSRXp7mo_oatXY-20" value="Cook" style="edgeLabel;html=1;align=center;verticalAlign=middle;resizable=0;points=[];fontSize=14;rotation=-30;" parent="G8AZ5grSRXp7mo_oatXY-19" vertex="1" connectable="0">
          <mxGeometry x="0.3333" y="2" relative="1" as="geometry">
            <mxPoint x="13.98" y="-9.67" as="offset" />
          </mxGeometry>
        </mxCell>
        <mxCell id="G8AZ5grSRXp7mo_oatXY-21" value="Kitchen Staff" style="shape=umlActor;verticalLabelPosition=bottom;verticalAlign=top;html=1;fillColor=#e3c800;strokeColor=#B09500;fontColor=#ffffff;" parent="1" vertex="1">
          <mxGeometry x="780" y="470" width="30" height="60" as="geometry" />
        </mxCell>
        <mxCell id="G8AZ5grSRXp7mo_oatXY-22" style="orthogonalLoop=1;jettySize=auto;html=1;exitX=0;exitY=0;exitDx=0;exitDy=0;entryX=0.5;entryY=1;entryDx=0;entryDy=0;fontSize=11;rounded=1;strokeWidth=2;fillColor=#1ba1e2;strokeColor=#006EAF;" parent="1" source="G8AZ5grSRXp7mo_oatXY-24" target="G8AZ5grSRXp7mo_oatXY-33" edge="1">
          <mxGeometry relative="1" as="geometry">
            <mxPoint x="195" y="400" as="targetPoint" />
            <Array as="points">
              <mxPoint x="350" y="450" />
            </Array>
          </mxGeometry>
        </mxCell>
        <mxCell id="G8AZ5grSRXp7mo_oatXY-23" value="Export" style="edgeLabel;html=1;align=center;verticalAlign=middle;resizable=0;points=[];fontSize=14;rotation=9;" parent="G8AZ5grSRXp7mo_oatXY-22" vertex="1" connectable="0">
          <mxGeometry x="0.1373" y="-1" relative="1" as="geometry">
            <mxPoint x="21.97" as="offset" />
          </mxGeometry>
        </mxCell>
        <mxCell id="G8AZ5grSRXp7mo_oatXY-24" value="Transaction" style="ellipse;whiteSpace=wrap;html=1;fillColor=#dae8fc;strokeColor=#6c8ebf;strokeWidth=2;fontSize=14;" parent="1" vertex="1">
          <mxGeometry x="410" y="460" width="122.5" height="30" as="geometry" />
        </mxCell>
        <mxCell id="G8AZ5grSRXp7mo_oatXY-25" style="rounded=0;orthogonalLoop=1;jettySize=auto;html=1;entryX=0.5;entryY=0;entryDx=0;entryDy=0;endArrow=block;endFill=0;endSize=12;fontSize=11;dashed=1;" parent="1" source="G8AZ5grSRXp7mo_oatXY-24" target="G8AZ5grSRXp7mo_oatXY-39" edge="1">
          <mxGeometry relative="1" as="geometry" />
        </mxCell>
        <mxCell id="G8AZ5grSRXp7mo_oatXY-26" style="edgeStyle=none;rounded=0;orthogonalLoop=1;jettySize=auto;html=1;exitX=0.5;exitY=1;exitDx=0;exitDy=0;entryX=0.5;entryY=0;entryDx=0;entryDy=0;endArrow=block;endFill=0;endSize=12;fontSize=11;dashed=1;" parent="1" source="G8AZ5grSRXp7mo_oatXY-27" target="G8AZ5grSRXp7mo_oatXY-18" edge="1">
          <mxGeometry relative="1" as="geometry" />
        </mxCell>
        <mxCell id="G8AZ5grSRXp7mo_oatXY-56" style="edgeStyle=none;rounded=1;orthogonalLoop=1;jettySize=auto;html=1;exitX=1;exitY=0.5;exitDx=0;exitDy=0;entryX=0;entryY=0.5;entryDx=0;entryDy=0;strokeWidth=2;fontSize=14;fillColor=#1ba1e2;strokeColor=#006EAF;" parent="1" source="G8AZ5grSRXp7mo_oatXY-27" target="G8AZ5grSRXp7mo_oatXY-53" edge="1">
          <mxGeometry relative="1" as="geometry" />
        </mxCell>
        <mxCell id="G8AZ5grSRXp7mo_oatXY-27" value="QR Code" style="ellipse;whiteSpace=wrap;html=1;fillColor=#dae8fc;strokeColor=#6c8ebf;strokeWidth=2;fontSize=14;" parent="1" vertex="1">
          <mxGeometry x="412.5" y="150" width="117.5" height="30" as="geometry" />
        </mxCell>
        <mxCell id="G8AZ5grSRXp7mo_oatXY-28" style="rounded=1;orthogonalLoop=1;jettySize=auto;html=1;exitX=1;exitY=0.5;exitDx=0;exitDy=0;startArrow=classicThin;startFill=1;endArrow=none;endFill=0;fillColor=#fa6800;strokeColor=#C73500;strokeWidth=2;" parent="1" source="G8AZ5grSRXp7mo_oatXY-32" edge="1">
          <mxGeometry relative="1" as="geometry">
            <mxPoint x="780" y="190" as="targetPoint" />
            <Array as="points">
              <mxPoint x="640" y="325" />
            </Array>
          </mxGeometry>
        </mxCell>
        <mxCell id="G8AZ5grSRXp7mo_oatXY-29" value="Confirm" style="edgeLabel;html=1;align=center;verticalAlign=middle;resizable=0;points=[];rotation=0;fontSize=14;" parent="G8AZ5grSRXp7mo_oatXY-28" connectable="0" vertex="1">
          <mxGeometry x="-0.6571" y="2" relative="1" as="geometry">
            <mxPoint x="9" y="-3" as="offset" />
          </mxGeometry>
        </mxCell>
        <mxCell id="G8AZ5grSRXp7mo_oatXY-30" style="rounded=1;orthogonalLoop=1;jettySize=auto;html=1;exitX=0.5;exitY=1;exitDx=0;exitDy=0;fillColor=#1ba1e2;strokeColor=#006EAF;strokeWidth=2;" parent="1" source="G8AZ5grSRXp7mo_oatXY-32" target="G8AZ5grSRXp7mo_oatXY-21" edge="1">
          <mxGeometry relative="1" as="geometry">
            <mxPoint x="740" y="490" as="targetPoint" />
            <Array as="points">
              <mxPoint x="560" y="500" />
            </Array>
          </mxGeometry>
        </mxCell>
        <mxCell id="G8AZ5grSRXp7mo_oatXY-31" value="Check availability" style="edgeLabel;html=1;align=center;verticalAlign=middle;resizable=0;points=[];rotation=0;fontSize=14;" parent="G8AZ5grSRXp7mo_oatXY-30" connectable="0" vertex="1">
          <mxGeometry x="-0.1067" relative="1" as="geometry">
            <mxPoint x="67.53" y="3.552713678800501e-15" as="offset" />
          </mxGeometry>
        </mxCell>
        <mxCell id="G8AZ5grSRXp7mo_oatXY-32" value="Order" style="ellipse;whiteSpace=wrap;html=1;fillColor=#dae8fc;strokeColor=#6c8ebf;strokeWidth=2;fontSize=14;" parent="1" vertex="1">
          <mxGeometry x="410" y="310" width="120" height="30" as="geometry" />
        </mxCell>
        <mxCell id="G8AZ5grSRXp7mo_oatXY-33" value="Database" style="ellipse;whiteSpace=wrap;html=1;fillColor=#dae8fc;strokeColor=#6c8ebf;" parent="1" vertex="1">
          <mxGeometry x="250" y="385" width="117.5" height="35" as="geometry" />
        </mxCell>
        <mxCell id="G8AZ5grSRXp7mo_oatXY-34" value="" style="endArrow=classicThin;endFill=1;endSize=12;html=1;exitX=0.5;exitY=1;exitDx=0;exitDy=0;entryX=0.5;entryY=0;entryDx=0;entryDy=0;fillColor=#1ba1e2;strokeColor=#006EAF;strokeWidth=2;" parent="1" source="G8AZ5grSRXp7mo_oatXY-32" target="G8AZ5grSRXp7mo_oatXY-33" edge="1">
          <mxGeometry width="160" relative="1" as="geometry">
            <mxPoint x="439.9999999999999" y="384.76" as="sourcePoint" />
            <mxPoint x="477" y="401" as="targetPoint" />
            <Array as="points">
              <mxPoint x="350" y="360" />
            </Array>
          </mxGeometry>
        </mxCell>
        <mxCell id="G8AZ5grSRXp7mo_oatXY-35" value="Record" style="edgeLabel;html=1;align=center;verticalAlign=middle;resizable=0;points=[];fontSize=14;rotation=353;" parent="G8AZ5grSRXp7mo_oatXY-34" connectable="0" vertex="1">
          <mxGeometry x="-0.1857" y="-1" relative="1" as="geometry">
            <mxPoint x="-11.77" as="offset" />
          </mxGeometry>
        </mxCell>
        <mxCell id="G8AZ5grSRXp7mo_oatXY-36" style="edgeStyle=orthogonalEdgeStyle;rounded=1;orthogonalLoop=1;jettySize=auto;html=1;fillColor=#fa6800;strokeColor=#C73500;strokeWidth=2;" parent="1" source="G8AZ5grSRXp7mo_oatXY-39" edge="1">
          <mxGeometry relative="1" as="geometry">
            <mxPoint x="125" y="450" as="targetPoint" />
            <Array as="points">
              <mxPoint x="125" y="575" />
            </Array>
          </mxGeometry>
        </mxCell>
        <mxCell id="G8AZ5grSRXp7mo_oatXY-37" value="Delivery" style="edgeLabel;html=1;align=center;verticalAlign=middle;resizable=0;points=[];fontSize=14;" parent="G8AZ5grSRXp7mo_oatXY-36" connectable="0" vertex="1">
          <mxGeometry x="-0.2212" y="2" relative="1" as="geometry">
            <mxPoint x="32.75" y="-2" as="offset" />
          </mxGeometry>
        </mxCell>
        <mxCell id="G8AZ5grSRXp7mo_oatXY-38" style="edgeStyle=none;rounded=0;orthogonalLoop=1;jettySize=auto;html=1;dashed=1;endArrow=block;endFill=0;endSize=12;fontSize=11;" parent="1" source="G8AZ5grSRXp7mo_oatXY-39" target="G8AZ5grSRXp7mo_oatXY-41" edge="1">
          <mxGeometry relative="1" as="geometry" />
        </mxCell>
        <mxCell id="G8AZ5grSRXp7mo_oatXY-39" value="Food" style="ellipse;whiteSpace=wrap;html=1;fillColor=#dae8fc;strokeColor=#6c8ebf;strokeWidth=2;fontSize=14;" parent="1" vertex="1">
          <mxGeometry x="411.25" y="560" width="120" height="30" as="geometry" />
        </mxCell>
        <mxCell id="G8AZ5grSRXp7mo_oatXY-40" value="View &amp;amp; Modify" style="edgeLabel;html=1;align=center;verticalAlign=middle;resizable=0;points=[];fontSize=14;rotation=0;" parent="1" connectable="0" vertex="1">
          <mxGeometry x="589.9978411375034" y="370.00122522787683" as="geometry">
            <mxPoint x="-0.8883961480201155" y="25.44033711027004" as="offset" />
          </mxGeometry>
        </mxCell>
        <mxCell id="G8AZ5grSRXp7mo_oatXY-54" style="rounded=1;orthogonalLoop=1;jettySize=auto;html=1;exitX=1;exitY=0.5;exitDx=0;exitDy=0;entryX=1;entryY=0.5;entryDx=0;entryDy=0;strokeWidth=2;fontSize=14;edgeStyle=elbowEdgeStyle;fillColor=#1ba1e2;strokeColor=#006EAF;" parent="1" source="G8AZ5grSRXp7mo_oatXY-41" target="G8AZ5grSRXp7mo_oatXY-53" edge="1">
          <mxGeometry relative="1" as="geometry">
            <Array as="points">
              <mxPoint x="710" y="420" />
            </Array>
          </mxGeometry>
        </mxCell>
        <mxCell id="G8AZ5grSRXp7mo_oatXY-55" value="Connect" style="edgeLabel;html=1;align=center;verticalAlign=middle;resizable=0;points=[];fontSize=14;rotation=0;" parent="G8AZ5grSRXp7mo_oatXY-54" vertex="1" connectable="0">
          <mxGeometry x="0.1665" relative="1" as="geometry">
            <mxPoint x="-100" y="230" as="offset" />
          </mxGeometry>
        </mxCell>
        <mxCell id="G8AZ5grSRXp7mo_oatXY-41" value="Feedback" style="ellipse;whiteSpace=wrap;html=1;fillColor=#dae8fc;strokeColor=#6c8ebf;strokeWidth=2;fontSize=14;" parent="1" vertex="1">
          <mxGeometry x="410" y="650" width="120" height="35" as="geometry" />
        </mxCell>
        <mxCell id="G8AZ5grSRXp7mo_oatXY-42" style="edgeStyle=none;rounded=0;orthogonalLoop=1;jettySize=auto;html=1;exitX=0.5;exitY=1;exitDx=0;exitDy=0;endArrow=block;endFill=0;endSize=12;fontSize=11;dashed=1;" parent="1" source="G8AZ5grSRXp7mo_oatXY-32" target="G8AZ5grSRXp7mo_oatXY-24" edge="1">
          <mxGeometry relative="1" as="geometry">
            <mxPoint x="481.25" y="270" as="sourcePoint" />
            <mxPoint x="482.5" y="320" as="targetPoint" />
          </mxGeometry>
        </mxCell>
        <mxCell id="G8AZ5grSRXp7mo_oatXY-45" value="Clerk" style="text;html=1;align=center;verticalAlign=middle;resizable=0;points=[];autosize=1;fontSize=14;" parent="1" vertex="1">
          <mxGeometry x="770" y="220" width="50" height="20" as="geometry" />
        </mxCell>
        <mxCell id="G8AZ5grSRXp7mo_oatXY-46" value="Kitchen" style="text;html=1;align=center;verticalAlign=middle;resizable=0;points=[];autosize=1;fontSize=14;" parent="1" vertex="1">
          <mxGeometry x="765" y="530" width="60" height="20" as="geometry" />
        </mxCell>
        <mxCell id="G8AZ5grSRXp7mo_oatXY-47" value="1" style="ellipse;whiteSpace=wrap;html=1;aspect=fixed;strokeWidth=2;fontSize=14;" parent="1" vertex="1">
          <mxGeometry x="430" y="120" width="20" height="20" as="geometry" />
        </mxCell>
        <mxCell id="G8AZ5grSRXp7mo_oatXY-48" value="2" style="ellipse;whiteSpace=wrap;html=1;aspect=fixed;strokeWidth=2;fontSize=14;" parent="1" vertex="1">
          <mxGeometry x="430" y="200" width="20" height="20" as="geometry" />
        </mxCell>
        <mxCell id="G8AZ5grSRXp7mo_oatXY-49" value="3" style="ellipse;whiteSpace=wrap;html=1;aspect=fixed;strokeWidth=2;fontSize=14;" parent="1" vertex="1">
          <mxGeometry x="430" y="280" width="20" height="20" as="geometry" />
        </mxCell>
        <mxCell id="G8AZ5grSRXp7mo_oatXY-50" value="4" style="ellipse;whiteSpace=wrap;html=1;aspect=fixed;strokeWidth=2;fontSize=14;" parent="1" vertex="1">
          <mxGeometry x="430" y="430" width="20" height="20" as="geometry" />
        </mxCell>
        <mxCell id="G8AZ5grSRXp7mo_oatXY-51" value="5" style="ellipse;whiteSpace=wrap;html=1;aspect=fixed;strokeWidth=2;fontSize=14;" parent="1" vertex="1">
          <mxGeometry x="430" y="530" width="20" height="20" as="geometry" />
        </mxCell>
        <mxCell id="G8AZ5grSRXp7mo_oatXY-52" value="6" style="ellipse;whiteSpace=wrap;html=1;aspect=fixed;strokeWidth=2;fontSize=14;" parent="1" vertex="1">
          <mxGeometry x="430" y="620" width="20" height="20" as="geometry" />
        </mxCell>
        <mxCell id="G8AZ5grSRXp7mo_oatXY-53" value="Restaurant Profile" style="ellipse;whiteSpace=wrap;html=1;fillColor=#dae8fc;strokeColor=#6c8ebf;strokeWidth=2;fontSize=14;" parent="1" vertex="1">
          <mxGeometry x="560" y="147.5" width="130" height="35" as="geometry" />
        </mxCell>
        <mxCell id="G8AZ5grSRXp7mo_oatXY-58" style="rounded=1;orthogonalLoop=1;jettySize=auto;html=1;endArrow=classic;endFill=1;fontSize=15;entryX=0.5;entryY=1;entryDx=0;entryDy=0;fillColor=#fa6800;strokeColor=#C73500;strokeWidth=2;" parent="1" target="G8AZ5grSRXp7mo_oatXY-53" edge="1">
          <mxGeometry relative="1" as="geometry">
            <mxPoint x="780" y="190" as="sourcePoint" />
            <mxPoint x="542.5" y="255" as="targetPoint" />
            <Array as="points">
              <mxPoint x="625" y="210" />
            </Array>
          </mxGeometry>
        </mxCell>
        <mxCell id="G8AZ5grSRXp7mo_oatXY-59" value="Modify" style="edgeLabel;html=1;align=center;verticalAlign=middle;resizable=0;points=[];fontSize=14;rotation=351;" parent="G8AZ5grSRXp7mo_oatXY-58" connectable="0" vertex="1">
          <mxGeometry x="0.2123" y="-2" relative="1" as="geometry">
            <mxPoint x="0.3399999999999963" y="-2.2199999999999998" as="offset" />
          </mxGeometry>
        </mxCell>
      </root>
    </mxGraphModel>
  </diagram>
</mxfile>
